PathFileType	4	(X/Y/Z)	OpenSim_Sub03_CSBaseline_Magnet.trc
DataRate	CameraRate	NumFrames	NumMarkers	Units	OrigDataRate	OrigDataStartFrame	OrigNumFrames
100	100	33	8	m	100	5806	9288
Frame#	Time	torso_imu_offset_imu	pelvis_imu_offset_imu	tibia_r_imu_offset_imu	femur_r_imu_offset_imu	tibia_l_imu_offset_imu	femur_l_imu_offset_imu	toes_r_imu_offset_imu	toes_l_imu_offset_imu
				X1	Y1	Z1	X2	Y2	Z2	X3	Y3	Z3	X4	Y4	Z4	X5	Y5	Z5	X6	Y6	Z6	X7	Y7	Z7	X8		Y8	Z8	

5806	58.05000000	-0.87820924	-0.20375541	0.07620298	-0.73560160	0.14431657	-0.52201102	-0.32604583	-0.70849820	0.03788886	-0.52797768	-0.64554720	0.02735340	-0.71333902	0.23092390	0.13953938	-0.75540647	0.17540490	0.23041584	-0.69789359	-0.37623285	0.09458176	-0.62139577	-0.02091719	-0.42190735
5807	58.06000000	-0.88219222	-0.20494605	0.07659441	-0.73972877	0.14359659	-0.52055483	-0.31908354	-0.71092156	0.03892556	-0.53480781	-0.63795387	0.01963819	-0.70768350	0.24471252	0.14409198	-0.75163587	0.17731509	0.23710393	-0.68822224	-0.38846635	0.12347716	-0.62228338	-0.01776101	-0.42063445
5808	58.07000000	-0.87951470	-0.20394108	0.07318104	-0.73870948	0.14084689	-0.51088450	-0.30093115	-0.71577418	0.02852507	-0.54216502	-0.62630916	0.01043226	-0.69774753	0.24654360	0.15371278	-0.74783739	0.17831366	0.24106214	-0.67211560	-0.40469516	0.15444765	-0.62482442	-0.01781629	-0.42285093
5809	58.08000000	-0.87440462	-0.20218078	0.07094661	-0.74161422	0.14019445	-0.51662776	-0.28917396	-0.72231170	0.02069356	-0.55184947	-0.61707414	0.00290756	-0.69679762	0.25306952	0.15896639	-0.74980459	0.18123273	0.24655819	-0.65630846	-0.41700296	0.18586023	-0.63386942	-0.02109409	-0.41213590
5810	58.09000000	-0.87504418	-0.20244737	0.06733353	-0.73622087	0.13679311	-0.51310224	-0.27477643	-0.72771767	0.01526488	-0.55786142	-0.60193059	-0.00681118	-0.70319823	0.25387948	0.16992258	-0.74966644	0.19192946	0.25145630	-0.63076314	-0.43675624	0.21554118	-0.63547365	-0.01900765	-0.42302656
5811	58.10000000	-0.87547799	-0.20238775	0.07442434	-0.73664381	0.13318241	-0.51644162	-0.26629462	-0.73296088	0.00963126	-0.57295034	-0.59132064	-0.01342062	-0.69825838	0.25904259	0.17504522	-0.74450858	0.19826889	0.25127687	-0.61332865	-0.45021943	0.23530357	-0.63406188	-0.01776821	-0.41520360
5812	58.11000000	-0.87775205	-0.20235963	0.07534493	-0.73990127	0.13881017	-0.51139340	-0.25080487	-0.73614764	0.00221870	-0.57741171	-0.57822309	-0.02253506	-0.69475341	0.26918525	0.17898067	-0.74411887	0.20783877	0.25400639	-0.59192150	-0.46749147	0.25900425	-0.63699089	-0.01499635	-0.41489434
5813	58.12000000	-0.88065252	-0.20253174	0.07455306	-0.73693513	0.13381612	-0.51381380	-0.23686010	-0.73682651	0.00018972	-0.58908747	-0.56077185	-0.03271383	-0.68686735	0.27240458	0.18299191	-0.74085942	0.21507500	0.25563028	-0.56740834	-0.48535798	0.27240059	-0.63928032	-0.02106036	-0.42065520
5814	58.13000000	-0.87973141	-0.20181865	0.07302330	-0.73854880	0.13807008	-0.51695021	-0.21655575	-0.74246678	-0.00920926	-0.59693271	-0.54847436	-0.03479689	-0.68548225	0.27813041	0.18789068	-0.74000720	0.21954400	0.25436930	-0.54531306	-0.50413028	0.28858098	-0.64466789	-0.02269390	-0.41975581
5815	58.14000000	-0.87589996	-0.20041701	0.07686284	-0.73870048	0.13876217	-0.51460165	-0.21255837	-0.73930980	-0.02196859	-0.60747595	-0.53459695	-0.04181990	-0.68398196	0.28761580	0.19377634	-0.73217402	0.22609019	0.25314867	-0.51584866	-0.52448905	0.30040467	-0.65062356	-0.01798475	-0.41985356
5816	58.15000000	-0.87898154	-0.19975823	0.07918227	-0.73559031	0.14178203	-0.51475477	-0.20493577	-0.74311889	-0.02982075	-0.61874903	-0.52034052	-0.05140648	-0.67937536	0.29028910	0.19802466	-0.72785260	0.23426947	0.25613709	-0.48803243	-0.54376065	0.30472613	-0.65219504	-0.02131059	-0.42036193
5817	58.16000000	-0.87433659	-0.19859453	0.07785107	-0.73375976	0.13962938	-0.51586250	-0.19725268	-0.74448260	-0.03043425	-0.62170187	-0.50344643	-0.05831817	-0.67291916	0.29223176	0.20118620	-0.72925366	0.24361861	0.26184644	-0.46905134	-0.56229732	0.31093338	-0.65514891	-0.02480159	-0.41805271
5818	58.17000000	-0.87667199	-0.20071807	0.07911454	-0.72911663	0.13972833	-0.52103317	-0.19004196	-0.74990309	-0.02919109	-0.62470674	-0.49271543	-0.06144664	-0.67624445	0.30386644	0.20030910	-0.72734706	0.24379687	0.27088021	-0.45562499	-0.57761742	0.30734543	-0.65927302	-0.01703058	-0.41301054
5819	58.18000000	-0.87917020	-0.20041363	0.07788765	-0.73547514	0.14086804	-0.52064201	-0.18292558	-0.74933567	-0.03216758	-0.62983803	-0.47946196	-0.06306092	-0.67104125	0.30614254	0.20468517	-0.71979804	0.24546396	0.27600597	-0.45875455	-0.58021826	0.28877057	-0.66212290	-0.01969989	-0.41196162
5820	58.19000000	-0.87745874	-0.20020209	0.07903597	-0.73703824	0.14012526	-0.51770172	-0.17811276	-0.74830290	-0.02507188	-0.63757994	-0.47100820	-0.06709345	-0.66802470	0.31624335	0.20793640	-0.71530406	0.25337716	0.27839710	-0.47857154	-0.58200754	0.26753435	-0.66500347	-0.02591794	-0.40453936
5821	58.20000000	-0.87619901	-0.19670385	0.07822470	-0.73175356	0.13628577	-0.52351201	-0.17423291	-0.74857459	-0.03568121	-0.64484060	-0.45734326	-0.06790457	-0.67071113	0.31915080	0.20362503	-0.71660601	0.26192762	0.28313209	-0.49173280	-0.57927978	0.25821224	-0.66592183	-0.02435753	-0.40189199
5822	58.21000000	-0.87371530	-0.19876996	0.08248110	-0.73239607	0.14430544	-0.52209734	-0.17499204	-0.75337665	-0.04368464	-0.64666344	-0.44309439	-0.07004024	-0.66325829	0.31941828	0.21247993	-0.71491265	0.26652203	0.28735455	-0.50891149	-0.56228321	0.25455328	-0.67030686	-0.02879524	-0.40194048
5823	58.22000000	-0.87844028	-0.20309039	0.08156890	-0.73152733	0.14409143	-0.51793505	-0.17169297	-0.74586154	-0.04757731	-0.65369120	-0.43224980	-0.06225979	-0.65934099	0.32789814	0.21786925	-0.70745262	0.27036613	0.28732318	-0.52995096	-0.55137988	0.24442139	-0.67172854	-0.02741038	-0.39811054
5824	58.23000000	-0.87947374	-0.19545566	0.08237890	-0.72874432	0.14119156	-0.52175827	-0.17558676	-0.74134757	-0.05566976	-0.65876630	-0.42367878	-0.05467818	-0.65591205	0.33314365	0.21204672	-0.70717506	0.27504113	0.28759856	-0.54839545	-0.53873219	0.23253009	-0.67178012	-0.03020381	-0.39119306
5825	58.24000000	-0.87589154	-0.19893676	0.08338740	-0.73172767	0.15027514	-0.51982964	-0.17847465	-0.74947540	-0.04273327	-0.65525070	-0.40960444	-0.05808234	-0.65263767	0.34157757	0.21755448	-0.70768330	0.28116849	0.29291221	-0.56431403	-0.52379767	0.22553823	-0.67525412	-0.03463603	-0.38805053
5826	58.25000000	-0.87312162	-0.19743640	0.07777459	-0.72172817	0.15337153	-0.52347658	-0.18290417	-0.74955321	-0.02083323	-0.66326241	-0.39680135	-0.05881931	-0.65142116	0.34937467	0.21678244	-0.69813648	0.29329124	0.29442402	-0.58097829	-0.51209214	0.20443133	-0.68267389	-0.03384911	-0.38927995
5827	58.26000000	-0.87611929	-0.19618009	0.07963804	-0.72388320	0.15433907	-0.52382770	-0.19750678	-0.74048424	-0.00862355	-0.66807253	-0.38878006	-0.05590046	-0.65413197	0.35917619	0.21247385	-0.70015618	0.29404416	0.29863614	-0.60608215	-0.49779274	0.18661048	-0.68766453	-0.03619017	-0.38653410
5828	58.27000000	-0.87776049	-0.19957498	0.08645547	-0.72580090	0.15171577	-0.52328345	-0.20749274	-0.73590168	0.00871138	-0.66549900	-0.37365694	-0.05051604	-0.64648488	0.36263640	0.21822962	-0.69842106	0.30260499	0.28999247	-0.62554302	-0.47599001	0.16395619	-0.68554900	-0.03335800	-0.37737658
5829	58.28000000	-0.87661911	-0.19874864	0.08394180	-0.72742742	0.15521986	-0.52700500	-0.21689425	-0.73413781	0.01544682	-0.66986395	-0.36052342	-0.05461007	-0.64345810	0.36768087	0.22718927	-0.69553649	0.30338154	0.28892993	-0.64069431	-0.46635503	0.13568022	-0.68720442	-0.03747931	-0.37507579
5830	58.29000000	-0.87156176	-0.19824392	0.08715213	-0.72319530	0.16038562	-0.52945503	-0.23639833	-0.72695638	0.02515721	-0.67069298	-0.35617717	-0.04946524	-0.64068729	0.37506125	0.22366064	-0.69408636	0.30727977	0.29273804	-0.66298425	-0.44877653	0.10708016	-0.69288163	-0.03850870	-0.37379276
5831	58.30000000	-0.87337545	-0.20396265	0.08900565	-0.71863051	0.15705298	-0.53341088	-0.25014850	-0.72068869	0.02434522	-0.67465274	-0.34460085	-0.04323974	-0.63677949	0.37911364	0.22155410	-0.69280179	0.31332653	0.29295011	-0.67758577	-0.43374107	0.07476563	-0.69016284	-0.04176426	-0.37045334
5832	58.31000000	-0.87935257	-0.19702286	0.09197723	-0.72226823	0.16209709	-0.52995241	-0.27027665	-0.72365324	0.02366568	-0.67420317	-0.33537279	-0.03892148	-0.63508695	0.38142014	0.22530245	-0.69415167	0.31824377	0.29355284	-0.69308357	-0.42274341	0.05247538	-0.69631317	-0.03876628	-0.36934684
5833	58.32000000	-0.87474041	-0.19481438	0.09516479	-0.72319691	0.16311770	-0.53600840	-0.29335683	-0.71150447	0.02436369	-0.67975146	-0.32600246	-0.04506247	-0.63236967	0.39359159	0.22538739	-0.68725505	0.32802245	0.29421564	-0.69922623	-0.41204094	0.01987910	-0.69721709	-0.04134883	-0.36114847
5834	58.33000000	-0.87511425	-0.19202110	0.09522514	-0.71976118	0.16325384	-0.53547266	-0.30869971	-0.69834083	0.02195797	-0.68498682	-0.31440286	-0.03894634	-0.62853351	0.39992381	0.22923693	-0.68985833	0.33018782	0.29764385	-0.70511540	-0.39904331	-0.01250136	-0.70306792	-0.04226413	-0.35707500
5835	58.34000000	-0.87305738	-0.19448420	0.09702921	-0.71687689	0.16714385	-0.53661569	-0.33105068	-0.69086342	0.01654371	-0.68190380	-0.30995296	-0.03591086	-0.62657944	0.40202207	0.22734825	-0.68690250	0.32921344	0.30168891	-0.71269011	-0.38416104	-0.04766437	-0.70219101	-0.03793618	-0.35575532
5836	58.35000000	-0.87798265	-0.18902027	0.09750120	-0.71634138	0.16772730	-0.54015226	-0.35548819	-0.68189436	0.00649358	-0.68650420	-0.30421943	-0.03770226	-0.62431712	0.40745010	0.22689453	-0.68412431	0.34015200	0.30871478	-0.71345695	-0.37196242	-0.07918032	-0.69859574	-0.04212398	-0.35322148
5837	58.36000000	-0.88095055	-0.18840937	0.09859641	-0.71541405	0.16381341	-0.53451479	-0.37914179	-0.67074042	0.00453755	-0.68583423	-0.29825417	-0.03312891	-0.61736854	0.41384325	0.22969044	-0.68182140	0.33888624	0.29352407	-0.71495844	-0.36204142	-0.11675602	-0.70108802	-0.03877049	-0.35310519
5838	58.37000000	-0.87392296	-0.19479126	0.09713518	-0.71635017	0.16689806	-0.54063437	-0.39901440	-0.65789897	-0.00109676	-0.68629177	-0.29689101	-0.02686647	-0.61293325	0.41692932	0.22769444	-0.68235316	0.33633803	0.29821081	-0.71431825	-0.34876377	-0.15087477	-0.70949260	-0.04157225	-0.34422735
